<?xml version="1.0" standalone="no"?>
<!DOCTYPE svg PUBLIC "-//W3C//DTD SVG 20010904//EN"
 "http://www.w3.org/TR/2001/REC-SVG-20010904/DTD/svg10.dtd">
<svg version="1.0" xmlns="http://www.w3.org/2000/svg"
 width="1200.000000pt" height="594.000000pt" viewBox="0 0 1200.000000 594.000000"
 preserveAspectRatio="xMidYMid meet">

<g transform="translate(0.000000,594.000000) scale(0.100000,-0.100000)"
fill="#000000" stroke="none">
<path d="M2407 5930 c-305 -23 -662 -115 -1065 -272 -298 -117 -477 -221 -612
-357 -97 -98 -146 -182 -205 -351 -45 -131 -55 -209 -30 -246 16 -25 21 -26
78 -22 49 4 93 19 207 70 113 51 493 213 579 246 18 7 45 96 -247 -808 -776
-2401 -1029 -3205 -1076 -3415 -81 -368 0 -542 280 -600 89 -18 158 -13 215
16 43 21 38 11 95 208 24 85 46 157 49 159 2 3 10 -8 16 -24 70 -171 134 -271
229 -357 241 -218 647 -224 1062 -16 216 108 371 221 548 399 180 181 337 389
480 633 34 59 64 107 66 107 1 0 22 -37 46 -82 85 -164 186 -275 308 -339 39
-21 59 -24 145 -24 93 0 104 2 162 32 107 56 239 189 401 401 l85 113 22 -73
c45 -154 126 -267 223 -311 36 -17 67 -22 132 -22 140 0 223 38 342 157 161
161 401 550 674 1090 74 148 139 268 145 268 22 0 68 -31 99 -66 31 -36 32
-40 28 -103 -4 -53 -22 -110 -90 -281 -129 -323 -149 -400 -149 -565 0 -167
46 -281 154 -382 189 -177 375 -202 581 -78 32 19 60 35 61 35 1 0 8 -34 15
-76 26 -165 86 -281 205 -401 64 -65 99 -91 161 -120 76 -36 83 -38 184 -38
98 0 110 2 174 33 235 111 457 375 665 789 63 127 101 226 120 313 7 30 14 61
17 68 2 8 16 3 44 -17 39 -28 110 -56 206 -80 l41 -11 -5 -118 c-3 -70 0 -139
7 -173 17 -83 91 -201 185 -295 88 -89 163 -133 269 -161 157 -40 396 27 641
182 88 55 89 55 104 34 117 -167 303 -298 498 -349 272 -71 603 -1 930 197
181 110 499 338 674 482 105 87 274 255 325 323 91 121 106 186 66 293 -57
151 -130 255 -180 255 -36 0 -35 0 -141 -130 -182 -223 -338 -379 -556 -553
-271 -218 -723 -497 -901 -556 -83 -28 -180 -28 -234 -1 -67 35 -112 115 -134
241 -6 35 -5 37 70 93 383 289 767 721 933 1051 75 148 95 215 96 310 0 104
-16 136 -132 247 -120 116 -187 150 -302 156 -109 5 -171 -17 -281 -100 -254
-191 -534 -525 -676 -803 -110 -217 -153 -376 -160 -592 l-6 -152 -57 -50
c-252 -219 -516 -321 -611 -235 -78 71 -25 282 166 665 117 232 170 306 413
568 162 174 203 233 210 299 4 47 2 51 -48 108 -29 32 -66 83 -82 112 -40 69
-73 95 -115 89 -76 -13 -270 -192 -407 -376 -111 -150 -180 -264 -296 -495
-96 -191 -109 -211 -144 -229 -49 -26 -120 -32 -171 -15 -57 19 -79 65 -114
243 -33 166 -49 198 -101 203 -80 8 -277 -89 -345 -170 l-27 -31 7 -127 7
-126 -43 -109 c-71 -183 -238 -503 -317 -607 -142 -187 -251 -288 -313 -288
-36 0 -83 41 -103 89 -28 71 -53 346 -41 466 l7 76 76 87 c918 1044 1685 2209
2048 3112 68 171 78 234 46 317 -46 122 -171 267 -272 315 -63 31 -143 35
-200 10 -233 -100 -827 -787 -1217 -1407 -427 -678 -751 -1484 -868 -2155 -14
-85 -28 -165 -31 -177 -7 -38 -121 -160 -202 -218 -94 -66 -136 -72 -183 -26
-28 28 -29 33 -29 119 0 129 24 200 194 586 118 265 130 304 124 415 -7 136
-29 167 -210 290 -133 91 -145 151 -69 341 68 167 52 237 -62 277 -78 27 -199
24 -256 -6 -70 -37 -138 -115 -186 -216 -55 -115 -77 -205 -79 -330 l-2 -100
-162 -320 c-248 -493 -362 -689 -513 -885 -56 -72 -138 -147 -178 -162 -32
-11 -53 14 -58 69 -9 94 35 225 261 775 117 282 127 329 85 382 -44 56 -168
95 -240 76 -69 -19 -181 -182 -425 -620 -198 -357 -264 -469 -320 -541 -94
-122 -229 -238 -297 -255 -73 -17 -148 34 -196 136 -23 50 -26 66 -25 170 0
102 4 125 32 207 82 238 251 493 529 797 264 289 443 384 595 314 29 -14 82
-49 118 -78 85 -69 109 -80 168 -80 59 0 104 27 144 87 36 54 62 154 55 214
-20 164 -159 242 -432 242 -200 0 -367 -39 -540 -125 -319 -159 -593 -435
-842 -844 -9 -16 -12 -16 -16 -4 -27 88 -84 223 -117 280 -110 188 -283 328
-469 379 l-61 17 137 99 c335 240 595 473 765 686 152 190 369 529 429 669
143 336 87 698 -155 1015 -171 222 -372 365 -631 450 -191 63 -467 92 -698 75z
m698 -496 c168 -33 342 -160 411 -299 31 -63 37 -86 42 -163 10 -187 -62 -380
-244 -652 -153 -230 -393 -514 -544 -644 -283 -244 -563 -449 -750 -549 -76
-41 -102 -49 -255 -77 -177 -32 -291 -59 -363 -84 -23 -8 -42 -11 -42 -6 0 12
168 554 275 885 175 544 213 687 222 840 8 136 -4 161 -142 303 l-106 111 38
19 c69 35 287 120 436 171 436 149 768 196 1022 145z m5335 -795 c0 -61 -151
-413 -325 -759 -242 -478 -508 -910 -807 -1307 -151 -201 -302 -384 -306 -369
-4 16 87 266 178 491 340 840 735 1495 1145 1897 87 85 115 97 115 47z m2142
-1934 c9 -19 7 -34 -7 -72 -91 -242 -325 -561 -556 -759 -111 -95 -209 -168
-216 -161 -12 12 53 212 101 313 121 251 297 462 541 644 88 66 119 74 137 35z
m-8305 -101 c301 -75 482 -287 483 -565 0 -145 -58 -352 -156 -558 l-64 -134
-72 69 c-125 118 -257 192 -419 235 -116 31 -306 32 -431 1 -108 -27 -252 -82
-338 -129 -132 -74 -304 -197 -397 -287 -24 -22 -43 -35 -43 -28 0 9 237 835
331 1155 l20 67 81 0 c204 0 529 78 748 179 75 34 104 34 257 -5z m-93 -1374
c92 -44 116 -125 76 -250 -21 -66 -28 -76 -104 -143 -484 -431 -807 -523 -901
-258 -19 55 -19 94 1 162 24 82 79 165 170 256 140 140 275 212 467 249 103
19 233 12 291 -16z"/>
<path d="M9825 4249 c-212 -73 -503 -391 -570 -623 -25 -85 -17 -213 17 -286
36 -78 98 -143 170 -179 83 -42 109 -41 140 7 26 38 146 145 250 221 133 97
283 262 350 385 28 52 33 71 33 131 0 91 -34 162 -124 258 -101 107 -154 124
-266 86z"/>
</g>
</svg>
